<svg height="2574" width="720" xmlns="http://www.w3.org/2000/svg">
<rect height="2574" fill="#555" width="720"></rect>
<text fill="#7f7" font-family="Courier New" font-size="12" xml:space="preserve">
<tspan x="10" y="26">22 megabytes installed</tspan>
<tspan x="10" y="42"></tspan>
<tspan x="10" y="58">node_modules</tspan>
<tspan x="10" y="74">├── UNMET PEER DEPENDENCY generator-mocha@~0.1.1</tspan>
<tspan x="10" y="90">├─┬ generator-webapp-php@0.3.0 </tspan>
<tspan x="10" y="106">│ ├─┬ cheerio@0.12.4 </tspan>
<tspan x="10" y="122">│ │ ├─┬ cheerio-select@0.0.3 </tspan>
<tspan x="10" y="138">│ │ │ └─┬ CSSselect@0.7.0 </tspan>
<tspan x="10" y="154">│ │ │   ├── boolbase@1.0.0 </tspan>
<tspan x="10" y="170">│ │ │   ├── CSSwhat@0.4.7 </tspan>
<tspan x="10" y="186">│ │ │   ├── domutils@1.4.3 </tspan>
<tspan x="10" y="202">│ │ │   └── nth-check@1.0.1 </tspan>
<tspan x="10" y="218">│ │ ├── entities@0.5.0 </tspan>
<tspan x="10" y="234">│ │ ├─┬ htmlparser2@3.1.4 </tspan>
<tspan x="10" y="250">│ │ │ ├── domelementtype@1.3.0 </tspan>
<tspan x="10" y="266">│ │ │ ├── domhandler@2.0.3 </tspan>
<tspan x="10" y="282">│ │ │ ├── domutils@1.1.6 </tspan>
<tspan x="10" y="298">│ │ │ └─┬ readable-stream@1.0.34 </tspan>
<tspan x="10" y="314">│ │ │   ├── core-util-is@1.0.2 </tspan>
<tspan x="10" y="330">│ │ │   ├── isarray@0.0.1 </tspan>
<tspan x="10" y="346">│ │ │   └── string_decoder@0.10.31 </tspan>
<tspan x="10" y="362">│ │ └── underscore@1.4.4 </tspan>
<tspan x="10" y="378">│ └─┬ yeoman-generator@0.14.2 </tspan>
<tspan x="10" y="394">│   ├── async@0.2.10 </tspan>
<tspan x="10" y="410">│   ├─┬ chalk@0.3.0 </tspan>
<tspan x="10" y="426">│   │ ├── ansi-styles@0.2.0 </tspan>
<tspan x="10" y="442">│   │ └── has-color@0.1.7 </tspan>
<tspan x="10" y="458">│   ├── dargs@0.1.0 </tspan>
<tspan x="10" y="474">│   ├── debug@0.7.4 </tspan>
<tspan x="10" y="490">│   ├── diff@1.0.8 </tspan>
<tspan x="10" y="506">│   ├─┬ download@0.1.19 </tspan>
<tspan x="10" y="522">│   │ ├─┬ decompress@0.2.5 </tspan>
<tspan x="10" y="538">│   │ │ ├── adm-zip@0.4.7 </tspan>
<tspan x="10" y="554">│   │ │ ├─┬ ext-name@1.0.1 </tspan>
<tspan x="10" y="570">│   │ │ │ └─┬ ext-list@0.2.0 </tspan>
<tspan x="10" y="586">│   │ │ │   └─┬ got@0.2.0 </tspan>
<tspan x="10" y="602">│   │ │ │     └── object-assign@0.3.1 </tspan>
<tspan x="10" y="618">│   │ │ ├─┬ stream-combiner@0.0.4 </tspan>
<tspan x="10" y="634">│   │ │ │ └── duplexer@0.1.1 </tspan>
<tspan x="10" y="650">│   │ │ ├─┬ tar@0.1.20 </tspan>
<tspan x="10" y="666">│   │ │ │ ├── block-stream@0.0.9 </tspan>
<tspan x="10" y="682">│   │ │ │ └─┬ fstream@0.1.31 </tspan>
<tspan x="10" y="698">│   │ │ │   ├─┬ graceful-fs@3.0.11 </tspan>
<tspan x="10" y="714">│   │ │ │   │ └── natives@1.1.0 </tspan>
<tspan x="10" y="730">│   │ │ │   └─┬ mkdirp@0.5.1 </tspan>
<tspan x="10" y="746">│   │ │ │     └── minimist@0.0.8 </tspan>
<tspan x="10" y="762">│   │ │ └─┬ tempfile@0.1.3 </tspan>
<tspan x="10" y="778">│   │ │   └── uuid@1.4.2 </tspan>
<tspan x="10" y="794">│   │ ├── each-async@0.1.3 </tspan>
<tspan x="10" y="810">│   │ ├── get-stdin@0.1.0 </tspan>
<tspan x="10" y="826">│   │ ├── get-urls@0.1.2 </tspan>
<tspan x="10" y="842">│   │ ├─┬ nopt@2.2.1 </tspan>
<tspan x="10" y="858">│   │ │ └── abbrev@1.1.0 </tspan>
<tspan x="10" y="874">│   │ ├─┬ request@2.81.0 </tspan>
<tspan x="10" y="890">│   │ │ ├── aws-sign2@0.6.0 </tspan>
<tspan x="10" y="906">│   │ │ ├── aws4@1.6.0 </tspan>
<tspan x="10" y="922">│   │ │ ├── caseless@0.12.0 </tspan>
<tspan x="10" y="938">│   │ │ ├─┬ combined-stream@1.0.5 </tspan>
<tspan x="10" y="954">│   │ │ │ └── delayed-stream@1.0.0 </tspan>
<tspan x="10" y="970">│   │ │ ├── extend@3.0.0 </tspan>
<tspan x="10" y="986">│   │ │ ├── forever-agent@0.6.1 </tspan>
<tspan x="10" y="1002">│   │ │ ├─┬ form-data@2.1.4 </tspan>
<tspan x="10" y="1018">│   │ │ │ └── asynckit@0.4.0 </tspan>
<tspan x="10" y="1034">│   │ │ ├─┬ har-validator@4.2.1 </tspan>
<tspan x="10" y="1050">│   │ │ │ ├─┬ ajv@4.11.7 </tspan>
<tspan x="10" y="1066">│   │ │ │ │ ├── co@4.6.0 </tspan>
<tspan x="10" y="1082">│   │ │ │ │ └─┬ json-stable-stringify@1.0.1 </tspan>
<tspan x="10" y="1098">│   │ │ │ │   └── jsonify@0.0.0 </tspan>
<tspan x="10" y="1114">│   │ │ │ └── har-schema@1.0.5 </tspan>
<tspan x="10" y="1130">│   │ │ ├─┬ hawk@3.1.3 </tspan>
<tspan x="10" y="1146">│   │ │ │ ├── boom@2.10.1 </tspan>
<tspan x="10" y="1162">│   │ │ │ ├── cryptiles@2.0.5 </tspan>
<tspan x="10" y="1178">│   │ │ │ ├── hoek@2.16.3 </tspan>
<tspan x="10" y="1194">│   │ │ │ └── sntp@1.0.9 </tspan>
<tspan x="10" y="1210">│   │ │ ├─┬ http-signature@1.1.1 </tspan>
<tspan x="10" y="1226">│   │ │ │ ├── assert-plus@0.2.0 </tspan>
<tspan x="10" y="1242">│   │ │ │ ├─┬ jsprim@1.4.0 </tspan>
<tspan x="10" y="1258">│   │ │ │ │ ├── assert-plus@1.0.0 </tspan>
<tspan x="10" y="1274">│   │ │ │ │ ├── extsprintf@1.0.2 </tspan>
<tspan x="10" y="1290">│   │ │ │ │ ├── json-schema@0.2.3 </tspan>
<tspan x="10" y="1306">│   │ │ │ │ └── verror@1.3.6 </tspan>
<tspan x="10" y="1322">│   │ │ │ └─┬ sshpk@1.13.0 </tspan>
<tspan x="10" y="1338">│   │ │ │   ├── asn1@0.2.3 </tspan>
<tspan x="10" y="1354">│   │ │ │   ├── assert-plus@1.0.0 </tspan>
<tspan x="10" y="1370">│   │ │ │   ├── bcrypt-pbkdf@1.0.1 </tspan>
<tspan x="10" y="1386">│   │ │ │   ├─┬ dashdash@1.14.1 </tspan>
<tspan x="10" y="1402">│   │ │ │   │ └── assert-plus@1.0.0 </tspan>
<tspan x="10" y="1418">│   │ │ │   ├── ecc-jsbn@0.1.1 </tspan>
<tspan x="10" y="1434">│   │ │ │   ├─┬ getpass@0.1.6 </tspan>
<tspan x="10" y="1450">│   │ │ │   │ └── assert-plus@1.0.0 </tspan>
<tspan x="10" y="1466">│   │ │ │   ├── jodid25519@1.0.2 </tspan>
<tspan x="10" y="1482">│   │ │ │   ├── jsbn@0.1.1 </tspan>
<tspan x="10" y="1498">│   │ │ │   └── tweetnacl@0.14.5 </tspan>
<tspan x="10" y="1514">│   │ │ ├── is-typedarray@1.0.0 </tspan>
<tspan x="10" y="1530">│   │ │ ├── isstream@0.1.2 </tspan>
<tspan x="10" y="1546">│   │ │ ├─┬ mime-types@2.1.15 </tspan>
<tspan x="10" y="1562">│   │ │ │ └── mime-db@1.27.0 </tspan>
<tspan x="10" y="1578">│   │ │ ├── oauth-sign@0.8.2 </tspan>
<tspan x="10" y="1594">│   │ │ ├── performance-now@0.2.0 </tspan>
<tspan x="10" y="1610">│   │ │ ├── qs@6.4.0 </tspan>
<tspan x="10" y="1626">│   │ │ ├── safe-buffer@5.0.1 </tspan>
<tspan x="10" y="1642">│   │ │ ├── stringstream@0.0.5 </tspan>
<tspan x="10" y="1658">│   │ │ ├─┬ tough-cookie@2.3.2 </tspan>
<tspan x="10" y="1674">│   │ │ │ └── punycode@1.4.1 </tspan>
<tspan x="10" y="1690">│   │ │ ├── tunnel-agent@0.6.0 </tspan>
<tspan x="10" y="1706">│   │ │ └── uuid@3.0.1 </tspan>
<tspan x="10" y="1722">│   │ └─┬ through2@0.4.2 </tspan>
<tspan x="10" y="1738">│   │   └─┬ xtend@2.1.2 </tspan>
<tspan x="10" y="1754">│   │     └── object-keys@0.4.0 </tspan>
<tspan x="10" y="1770">│   ├─┬ file-utils@0.1.5 </tspan>
<tspan x="10" y="1786">│   │ ├── lodash@2.1.0 </tspan>
<tspan x="10" y="1802">│   │ └─┬ minimatch@0.2.14 </tspan>
<tspan x="10" y="1818">│   │   ├── lru-cache@2.7.3 </tspan>
<tspan x="10" y="1834">│   │   └── sigmund@1.0.1 </tspan>
<tspan x="10" y="1850">│   ├─┬ findup-sync@0.1.3 </tspan>
<tspan x="10" y="1866">│   │ └── lodash@2.4.2 </tspan>
<tspan x="10" y="1882">│   ├─┬ glob@3.2.11 </tspan>
<tspan x="10" y="1898">│   │ ├── inherits@2.0.3 </tspan>
<tspan x="10" y="1914">│   │ └── minimatch@0.3.0 </tspan>
<tspan x="10" y="1930">│   ├── iconv-lite@0.2.11 </tspan>
<tspan x="10" y="1946">│   ├─┬ inquirer@0.3.5 </tspan>
<tspan x="10" y="1962">│   │ ├─┬ cli-color@0.2.3 </tspan>
<tspan x="10" y="1978">│   │ │ ├── es5-ext@0.9.2 </tspan>
<tspan x="10" y="1994">│   │ │ └─┬ memoizee@0.2.6 </tspan>
<tspan x="10" y="2010">│   │ │   ├── event-emitter@0.2.2 </tspan>
<tspan x="10" y="2026">│   │ │   └── next-tick@0.1.0 </tspan>
<tspan x="10" y="2042">│   │ ├── lodash@1.2.1 </tspan>
<tspan x="10" y="2058">│   │ └── mute-stream@0.0.3 </tspan>
<tspan x="10" y="2074">│   ├── isbinaryfile@0.1.9 </tspan>
<tspan x="10" y="2090">│   ├── lodash@2.2.1 </tspan>
<tspan x="10" y="2106">│   ├── mime@1.2.11 </tspan>
<tspan x="10" y="2122">│   ├── mkdirp@0.3.5 </tspan>
<tspan x="10" y="2138">│   ├─┬ request@2.27.0 </tspan>
<tspan x="10" y="2154">│   │ ├── aws-sign@0.3.0 </tspan>
<tspan x="10" y="2170">│   │ ├── cookie-jar@0.3.0 </tspan>
<tspan x="10" y="2186">│   │ ├── forever-agent@0.5.2 </tspan>
<tspan x="10" y="2202">│   │ ├─┬ form-data@0.1.4 </tspan>
<tspan x="10" y="2218">│   │ │ ├── async@0.9.2 </tspan>
<tspan x="10" y="2234">│   │ │ └─┬ combined-stream@0.0.7 </tspan>
<tspan x="10" y="2250">│   │ │   └── delayed-stream@0.0.5 </tspan>
<tspan x="10" y="2266">│   │ ├─┬ hawk@1.0.0 </tspan>
<tspan x="10" y="2282">│   │ │ ├── boom@0.4.2 </tspan>
<tspan x="10" y="2298">│   │ │ ├── cryptiles@0.2.2 </tspan>
<tspan x="10" y="2314">│   │ │ ├── hoek@0.9.1 </tspan>
<tspan x="10" y="2330">│   │ │ └── sntp@0.2.4 </tspan>
<tspan x="10" y="2346">│   │ ├─┬ http-signature@0.10.1 </tspan>
<tspan x="10" y="2362">│   │ │ ├── asn1@0.1.11 </tspan>
<tspan x="10" y="2378">│   │ │ ├── assert-plus@0.1.5 </tspan>
<tspan x="10" y="2394">│   │ │ └── ctype@0.5.3 </tspan>
<tspan x="10" y="2410">│   │ ├── json-stringify-safe@5.0.1 </tspan>
<tspan x="10" y="2426">│   │ ├── node-uuid@1.4.8 </tspan>
<tspan x="10" y="2442">│   │ ├── oauth-sign@0.3.0 </tspan>
<tspan x="10" y="2458">│   │ ├── qs@0.6.6 </tspan>
<tspan x="10" y="2474">│   │ └── tunnel-agent@0.3.0 </tspan>
<tspan x="10" y="2490">│   ├── rimraf@2.2.8 </tspan>
<tspan x="10" y="2506">│   ├── shelljs@0.2.6 </tspan>
<tspan x="10" y="2522">│   ├── text-table@0.2.0 </tspan>
<tspan x="10" y="2538">│   └── underscore.string@2.3.3 </tspan>
<tspan x="10" y="2554">└── UNMET PEER DEPENDENCY yo@&gt;=1.0.0-rc.1.1</tspan>
</text>
</svg>
